<svg xmlns="http://www.w3.org/2000/svg" viewBox="0 0 256 256" width="256" height="256">
  <defs>
    <linearGradient id="bg" x1="0" y1="0" x2="1" y2="1">
      <stop offset="0%" stop-color="#4f46e5"/>
      <stop offset="100%" stop-color="#0ea5e9"/>
    </linearGradient>
    <linearGradient id="folder" x1="0" y1="0" x2="0" y2="1">
      <stop offset="0%" stop-color="#fde68a"/>
      <stop offset="100%" stop-color="#f59e0b"/>
    </linearGradient>
  </defs>
  <rect width="256" height="256" rx="48" fill="url(#bg)"/>
  <path d="M52 84 h60 l16 16 h76 a12 12 0 0 1 12 12 v68 a12 12 0 0 1 -12 12 h-152 a12 12 0 0 1 -12 -12 v-84 a12 12 0 0 1 12 -12 z" fill="url(#folder)" stroke="#b45309" stroke-width="3"/>
  <circle cx="178" cy="172" r="34" fill="#ffffff" stroke="#1e293b" stroke-width="4"/>
  <path d="M163 172 l11 11 l21 -22" fill="none" stroke="#16a34a" stroke-width="7" stroke-linecap="round" stroke-linejoin="round"/>
  <text x="128" y="146" text-anchor="middle" font-family="-apple-system, system-ui, sans-serif" font-size="26" font-weight="700" fill="#1e293b">ALM</text>
</svg>
